<svg width="1780" height="256" xmlns="http://www.w3.org/2000/svg">
 <g id="Layer_1">
  <title>Layer 1</title>
  <path fill="none" stroke="#000" stroke-width="0" id="svg_4" d="m48,109.2c1,1 2.78985,5.07844 4,8c3.42282,8.26343 6.79393,21.08743 9,26c0.91602,2.03983 0,-1 0,-2c0,-3 -0.45951,-9.0535 0,-11c1.02748,-4.3525 5.4675,-10.64259 15,-18c2.85426,-2.20299 6,-2 9,-2c1,0 1,0 1,0c0,4 0,6 0,9c0,7 -3.59012,13.31812 -6,16c-5.22022,5.80942 -9.92767,9.23174 -16,11c-3.95868,1.15277 -5.77025,2.97325 -6,2c-0.51374,-2.17625 4.01933,-1.7226 6,-2c14.41949,-2.01952 25.82529,-6.36092 40,-13c15.81544,-7.40755 31.1505,-12.49454 42,-16c8.13017,-2.62685 11.47427,-4.14935 12,-5c1.17557,-1.90211 4,-2 4,-4c0,-2 -1.41156,-5.40401 -5,-10c-3.48129,-4.45876 -7.74362,-9.17906 -12,-15c-3.77946,-5.16872 -8.28859,-12.86829 -10,-17c-1.21014,-2.92156 -3.48625,-4.82375 -4,-7c-0.22975,-0.97325 -0.51375,-2.17625 0,0c2.52728,10.70574 1,28 1,43c0,19 -2.06201,39.08519 0,64c1.00342,12.12407 2,18 2,21c0,4 0,7 0,8c0,2 0,1 0,-1l0,-4l0,-2l-1,-2"/>
  <path fill="none" stroke="#000" stroke-width="0" id="svg_6" d="m286,110.2c-4,0 -11.10892,-1.03796 -16,0c-9.63431,2.04454 -14.93542,9.00625 -23,12c-10.3549,3.84397 -18,1 -29,1c-5,0 -10,0 -15,0c-5,0 -8.07613,-0.38268 -9,0c-1.30656,0.5412 -2,4 -2,10c0,8 8.40239,20.66051 21,36c7.23622,8.81119 22.58936,20.23772 36,24c10.76474,3.01999 18.00446,2.24953 25,2c14.02676,-0.50032 21,-5 27,-11l4,-3"/>
  <path fill="none" stroke="#000" stroke-width="0" id="svg_9" d="m96,92.2c-1,4 -1,11 -1,23c0,7 1,13 1,16c0,3 -3,7 -3,7c-3,0 -3.91901,-4.10701 -3,-8c2.05497,-8.705 9.94585,-11.14858 18,-14c5.96195,-2.11071 9.90778,-3.49622 14,-4c4.96254,-0.61092 9.97101,-1.43951 15,3c2.703,2.38616 4,10 4,17c0,12 0.29779,21.87511 -12,29c-10.52647,6.09865 -23,4 -37,4c-6,0 -10.87868,2.12132 -13,0c-0.70711,-0.70711 0,-3 0,-3c9,-2 22.73435,-2.59073 40,-10c17.74802,-7.61627 30.54344,-12.7706 47,-22c13.65202,-7.65652 22.49756,-12.9258 23,-18c0.68976,-6.96593 0.65738,-14.63331 -9,-24c-12.22417,-11.85621 -21.84059,-22.22702 -36,-32c-5.93472,-4.09622 -7.29289,-5.70711 -8,-5c-0.70711,0.70711 0,11 0,29c0,18 5.7,42.0498 9,61c3.66751,21.06061 4.51126,25.02997 5,29c0.50377,4.09221 1,4 1,5l0,1"/>
  <path fill="none" stroke="#000" stroke-width="0" id="svg_10" d="m42,143.2c3,0 2.19909,1.06456 3,6c1.01308,6.24289 2,12 2,16c0,5 0,9 -1,11c0,0 -0.16532,-3.08554 3,-9c3.80424,-7.10829 7.73652,-16.27379 15,-23c6.76458,-6.26421 11.41886,-8.41886 13,-10c3.16228,-3.16228 5.17193,-2.56063 6,-2c4.45928,3.01908 2.80091,15.06456 2,20c-1.01308,6.24289 -7,11 -12,16c-4,4 -5,4 -9,4c-2,0 -4.03145,-3.41208 -2,-7c2.09034,-3.69194 19.5831,-7.24213 34,-13c11.63625,-4.64732 22.03028,-10.94588 31,-16c7.02397,-3.95776 12.62022,-8.66891 14,-12c1.95131,-4.71088 1.39851,-9.00993 1,-17c-0.50062,-10.0374 -9.22054,-22.83128 -13,-28c-4.25637,-5.82093 -7.82375,-11.48626 -10,-12c-0.97325,-0.22975 -2,0 -2,4c0,15 -1.1119,28.03256 0,47c2.00343,34.17581 7.33002,55.15349 12,74c3.50198,14.13281 5,21 5,27c0,2 -0.14178,0.99496 0,-1c0.50126,-7.05328 3.96338,-15.75995 7,-30c2.94943,-13.83116 4.32442,-25.86537 10,-40c3.18367,-7.9287 8.82443,-12.09789 10,-14c1.05147,-1.7013 2.05132,-2.31623 3,-2c4.74342,1.58114 5.4588,5.69344 6,7c0.38269,0.92388 0,4 0,5c0,6 0,10 0,17c0,7 0,12 0,15c0,4 0.15224,5.76537 2,5c1.30656,-0.5412 1.28415,-0.73116 6,-6c4.27039,-4.77115 11,-6 14,-6c2,0 4.48625,-0.17625 5,2c0.22975,0.97325 2.28351,7.23962 0,18c-2.04454,9.63431 -10.87744,20.15085 -17,25c-3.50577,2.77661 -4,3 -8,3c-3,0 -3.9951,-8.85159 -5,-19c-0.68976,-6.96593 -1.16228,-10.83772 2,-14c1.58115,-1.58115 5,-1 11,-1c10,0 24.18228,-0.40865 38,6c6.08553,2.82246 8.72398,7.22273 12,11c0.92659,1.06837 2,5 2,12c0,5 0,11 0,13c0,3 -0.29289,6.29289 -1,7c-0.70711,0.70711 -1.49623,0.09221 -2,-4c-0.97746,-7.94006 -1.5574,-16.63712 4,-28c4.75232,-9.71677 11.80875,-18.76878 20,-23c3.66324,-1.89226 7.16911,-1.99303 10,-1c6.04218,2.11948 10.34619,15.70546 12,18c1.30746,1.814 1,3 1,2c0,-2 -0.0979,-6.82443 -2,-8c-0.85065,-0.52573 -1,0 -1,5c0,3 2.83505,9.1133 7,15c2.88785,4.0817 8.10556,4.44722 9,4c4.47214,-2.23607 4.4274,-11.12837 3,-19c-1.52448,-8.40691 -8.22885,-16.22624 -14,-19c-0.90131,-0.43318 -3.29289,-0.70711 -4,0c-2.82843,2.82843 -1,7 -1,10l0,4l0,4l0,1"/>
  <path fill="none" stroke-width="14" id="svg_11" d="m80.57973,118.47975c0,3.12003 -1.29826,6.33053 0,15.60016c1.57524,11.24732 5.28703,25.0187 6.24006,32.76034c0.7859,6.38391 1.56002,10.92011 0,7.80008c-1.56002,-3.12003 -2.81468,-21.96767 -1.56002,-28.08029c2.38881,-11.63809 11.87625,-13.67914 20.28021,-17.16018c5.94249,-2.46146 11.00358,-2.27685 14.04015,-1.56002c6.78997,1.6029 10.92011,6.24006 10.92011,15.60016c0,7.80008 -28.73193,29.57313 -56.16058,45.24047c-24.23191,13.84134 -33.81348,16.18733 -34.32036,14.04015c-1.13341,-4.80123 15.73432,-16.94866 42.12044,-28.08029c25.46978,-10.74506 59.26264,-23.44114 98.28102,-40.56042c24.94881,-10.94627 43.42316,-22.01696 49.92052,-31.20032c4.50511,-6.36751 6.91162,-15.84215 1.56002,-29.64031c-5.55582,-14.3247 -19.41456,-27.33429 -31.20032,-39.00041c-10.22182,-10.11805 -22.14563,-25.50805 -28.08029,-21.84023c-1.32702,0.82015 0,7.80008 0,32.76034c0,32.76034 9.23644,83.79493 14.04015,126.36131c4.20223,37.23651 6.24006,56.16058 6.24006,62.40065c0,0 0,4.68005 0,7.80008c0,3.12003 0,4.68005 0,6.24006l0,-1.56002" stroke="#000"/>
  <path fill="none" stroke="#000" stroke-width="0" id="svg_12" d="m210,154.2c1,0 2.69255,2.186 4,4c0.8269,1.14726 2.34518,7.17697 4,12c2.17706,6.34511 4.49623,9.90779 5,14c0.12218,0.99251 0.70711,1.70711 0,1c-0.70711,-0.70711 -1.10341,-2.90633 -2,-4c-2.28587,-2.78833 -2,-4 -2,-6c0,-3 0,-4 1,-4c1,0 3,-1 7,-1c3,0 5,0 8,0c2,0 3.1731,-0.14726 4,1c1.30745,1.814 2.27431,2.88496 3,5c1.65482,4.82303 1,8 1,9c0,1 0,1 0,3c0,2 -1,2 -4,2c-2,0 -3.02582,0.32036 -5,0c-3.12144,-0.50655 -4.19028,-3.88152 -6,-7c-1.12234,-1.93399 -1,-3 -2,-5l0,-1"/>
  <text font-weight="bold" fill="#000000" stroke="#000" stroke-width="0" x="199" y="210.2" id="svg_13" font-size="96" font-family="'Fira Code'" text-anchor="start" xml:space="preserve">bro</text>
 </g>

</svg>